<?xml version="1.0" encoding="UTF-8"?>
<svg width="800" height="600" viewBox="0 0 800 600" fill="none" xmlns="http://www.w3.org/2000/svg">
  <!-- Background Elements -->
  <circle cx="400" cy="300" r="250" fill="#00FF00" fill-opacity="0.05"/>
  <circle cx="400" cy="300" r="200" stroke="#00FF00" stroke-opacity="0.1" stroke-width="2"/>
  
  <!-- Smart Contract Blocks -->
  <g transform="translate(250, 200)">
    <!-- Contract Block 1 -->
    <rect x="0" y="0" width="120" height="80" rx="8" fill="#00FF00" fill-opacity="0.1" stroke="#00FF00" stroke-width="2"/>
    <rect x="10" y="10" width="100" height="10" rx="2" fill="#00FF00" fill-opacity="0.3"/>
    <rect x="10" y="30" width="80" height="10" rx="2" fill="#00FF00" fill-opacity="0.3"/>
    <rect x="10" y="50" width="60" height="10" rx="2" fill="#00FF00" fill-opacity="0.3"/>
    
    <!-- Contract Block 2 -->
    <rect x="150" y="40" width="120" height="80" rx="8" fill="#00FF00" fill-opacity="0.1" stroke="#00FF00" stroke-width="2"/>
    <rect x="160" y="50" width="100" height="10" rx="2" fill="#00FF00" fill-opacity="0.3"/>
    <rect x="160" y="70" width="80" height="10" rx="2" fill="#00FF00" fill-opacity="0.3"/>
    <rect x="160" y="90" width="60" height="10" rx="2" fill="#00FF00" fill-opacity="0.3"/>
    
    <!-- Connection Lines -->
    <path d="M120 40 L150 80" stroke="#00FF00" stroke-width="2" stroke-opacity="0.5"/>
    <path d="M120 60 L150 100" stroke="#00FF00" stroke-width="2" stroke-opacity="0.5"/>
  </g>
  
  <!-- Decorative Elements -->
  <circle cx="200" cy="150" r="20" fill="#00FF00" fill-opacity="0.1"/>
  <circle cx="600" cy="450" r="20" fill="#00FF00" fill-opacity="0.1"/>
  <circle cx="500" cy="100" r="15" fill="#00FF00" fill-opacity="0.1"/>
  <circle cx="300" cy="500" r="15" fill="#00FF00" fill-opacity="0.1"/>
  
  <!-- Connection Dots -->
  <circle cx="135" cy="50" r="4" fill="#00FF00"/>
  <circle cx="165" cy="90" r="4" fill="#00FF00"/>
</svg> 